<svg width="29" height="28" viewBox="0 0 29 28" fill="none" xmlns="http://www.w3.org/2000/svg">
<path d="M2.83398 13.9993C2.83398 9.59957 2.83398 7.39969 4.20082 6.03285C5.56766 4.66602 7.76754 4.66602 12.1673 4.66602H16.834C21.2337 4.66602 23.4337 4.66602 24.8004 6.03285C26.1673 7.39969 26.1673 9.59957 26.1673 13.9993V16.3327C26.1673 20.7324 26.1673 22.9324 24.8004 24.2991C23.4337 25.666 21.2337 25.666 16.834 25.666H12.1673C7.76754 25.666 5.56766 25.666 4.20082 24.2991C2.83398 22.9324 2.83398 20.7324 2.83398 16.3327V13.9993Z" stroke="#322938" stroke-width="1.5"/>
<path d="M8.66602 4.66602V2.91602" stroke="#322938" stroke-width="1.5" stroke-linecap="round"/>
<path d="M20.334 4.66602V2.91602" stroke="#322938" stroke-width="1.5" stroke-linecap="round"/>
<path d="M19.75 21C20.7165 21 21.5 20.2165 21.5 19.25C21.5 18.2835 20.7165 17.5 19.75 17.5C18.7835 17.5 18 18.2835 18 19.25C18 20.2165 18.7835 21 19.75 21Z" stroke="#322938" stroke-width="1.5"/>
<path d="M3.41602 10.5H25.5827" stroke="#322938" stroke-width="1.5" stroke-linecap="round"/>
</svg>
