<svg width="24" height="24" viewBox="0 0 24 24" fill="none" xmlns="http://www.w3.org/2000/svg">
<path d="M7.5 18C8.32843 18 9 18.6716 9 19.5C9 20.3284 8.32843 21 7.5 21C6.67157 21 6 20.3284 6 19.5C6 18.6716 6.67157 18 7.5 18Z" stroke="#322938" stroke-width="1.5"/>
<path d="M16.5 18C17.3284 18 18 18.6715 18 19.5C18 20.3284 17.3284 21 16.5 21C15.6716 21 15 20.3284 15 19.5C15 18.6715 15.6716 18 16.5 18Z" stroke="#322938" stroke-width="1.5"/>
<path d="M2.24896 2.29266C1.85819 2.15527 1.43004 2.36068 1.29266 2.75144C1.15527 3.14221 1.36068 3.57036 1.75144 3.70774L2.24896 2.29266ZM20.658 9.88295L21.3925 10.0344L21.3935 10.0298L20.658 9.88295ZM5.70828 9.7602V7.03856H4.20828V9.7602H5.70828ZM2.51017 2.38449L2.24896 2.29266L1.75144 3.70774L2.01265 3.79958L2.51017 2.38449ZM10.9377 16.2502H16.2406V14.7502H10.9377V16.2502ZM5.70828 7.03856C5.70828 6.3314 5.7093 5.7413 5.65739 5.26177C5.60366 4.76539 5.48725 4.31267 5.20527 3.90003L3.96681 4.74633C4.05707 4.87842 4.12677 5.05984 4.1661 5.42319C4.20726 5.8034 4.20828 6.29861 4.20828 7.03856H5.70828ZM2.01265 3.79958C2.68026 4.0343 3.11901 4.18985 3.44186 4.34826C3.74508 4.49704 3.87875 4.61747 3.96681 4.74633L5.20527 3.90003C4.92109 3.48417 4.54324 3.21783 4.10261 3.00163C3.68159 2.79505 3.14415 2.60739 2.51017 2.38449L2.01265 3.79958ZM4.20828 9.7602C4.20828 11.2127 4.22191 12.2601 4.35896 13.0603C4.50528 13.9146 4.79742 14.5263 5.34365 15.1024L6.43218 14.0704C6.11202 13.7327 5.93933 13.402 5.83743 12.8071C5.72627 12.158 5.70828 11.2492 5.70828 9.7602H4.20828ZM10.9377 14.7502C9.52089 14.7502 8.53783 14.7484 7.79716 14.6434C7.08235 14.542 6.70472 14.3578 6.43218 14.0704L5.34365 15.1024C5.93751 15.7288 6.69032 16.0015 7.58656 16.1285C8.45694 16.252 9.56555 16.2502 10.9377 16.2502V14.7502ZM4.95828 6.8702H17.089V5.3702H4.95828V6.8702ZM19.9234 9.73155L19.4237 12.1563L20.8928 12.4591L21.3925 10.0344L19.9234 9.73155ZM17.089 6.8702C17.9454 6.8702 18.6991 6.8712 19.2939 6.93769C19.5895 6.97073 19.8107 7.01663 19.9661 7.07125C20.1275 7.12796 20.1532 7.17147 20.1403 7.15459L21.3292 6.23998C21.0942 5.93456 20.7638 5.76165 20.4634 5.65607C20.1569 5.54838 19.8103 5.48607 19.4606 5.44698C18.7648 5.3692 17.9176 5.3702 17.089 5.3702V6.8702ZM21.3935 10.0298C21.5627 9.18187 21.7064 8.47044 21.7416 7.90058C21.7777 7.31438 21.711 6.73637 21.3292 6.23998L20.1403 7.15459C20.2023 7.23528 20.2708 7.38057 20.2444 7.80817C20.217 8.25211 20.1004 8.84498 19.9225 9.73615L21.3935 10.0298ZM16.2406 16.2502C17.0023 16.2502 17.6415 16.2515 18.1568 16.1884C18.6925 16.1229 19.1811 15.9796 19.6076 15.632L18.66 14.4692C18.5348 14.5712 18.3573 14.6527 17.9746 14.6996C17.5714 14.7489 17.0399 14.7502 16.2406 14.7502V16.2502ZM19.4237 12.1563C19.2623 12.9391 19.1537 13.4595 19.024 13.8444C18.9009 14.2097 18.7852 14.3672 18.66 14.4692L19.6076 15.632C20.0341 15.2844 20.2731 14.8348 20.4455 14.3234C20.6113 13.8314 20.739 13.2051 20.8928 12.4591L19.4237 12.1563Z" fill="#322938"/>
</svg>
