<svg width="27" height="23" viewBox="0 0 27 23" fill="none" xmlns="http://www.w3.org/2000/svg">
<path d="M13.5007 4.41779L12.8702 5.02457C13.0352 5.19595 13.2628 5.29279 13.5007 5.29279C13.7385 5.29279 13.9662 5.19595 14.1311 5.02457L13.5007 4.41779ZM10.4977 19.3759C8.72944 17.982 6.7959 16.6207 5.26199 14.8935C3.75807 13.2 2.70898 11.224 2.70898 8.66034H0.958984C0.958984 11.7701 2.25457 14.1425 3.95349 16.0555C5.62242 17.9348 7.74988 19.4381 9.41431 20.7503L10.4977 19.3759ZM2.70898 8.66034C2.70898 6.15099 4.12692 4.04666 6.0624 3.16194C7.94273 2.30244 10.4693 2.53006 12.8702 5.02457L14.1311 3.811C11.2822 0.851158 7.97542 0.36334 5.33487 1.57034C2.74948 2.75212 0.958984 5.49625 0.958984 8.66034H2.70898ZM9.41431 20.7503C10.0119 21.2214 10.6534 21.7237 11.3036 22.1036C11.9535 22.4834 12.6952 22.7921 13.5007 22.7921V21.0421C13.1395 21.0421 12.7144 20.9012 12.1865 20.5927C11.6588 20.2843 11.1114 19.8598 10.4977 19.3759L9.41431 20.7503ZM17.587 20.7503C19.2514 19.4381 21.3789 17.9348 23.0478 16.0555C24.7467 14.1425 26.0423 11.7701 26.0423 8.66034H24.2923C24.2923 11.224 23.2433 13.2 21.7393 14.8935C20.2054 16.6207 18.2719 17.982 16.5037 19.3759L17.587 20.7503ZM26.0423 8.66034C26.0423 5.49625 24.2518 2.75212 21.6664 1.57034C19.0259 0.36334 15.7191 0.851158 12.8702 3.811L14.1311 5.02457C16.532 2.53006 19.0585 2.30244 20.9389 3.16194C22.8744 4.04666 24.2923 6.15099 24.2923 8.66034H26.0423ZM16.5037 19.3759C15.8899 19.8598 15.3425 20.2843 14.8148 20.5927C14.2869 20.9012 13.8619 21.0421 13.5007 21.0421V22.7921C14.3061 22.7921 15.0478 22.4834 15.6977 22.1036C16.3479 21.7237 16.9893 21.2214 17.587 20.7503L16.5037 19.3759Z" fill="#322938"/>
</svg>
