<svg width="29" height="28" viewBox="0 0 29 28" fill="none" xmlns="http://www.w3.org/2000/svg">
<path d="M2.83398 14.2385C2.83398 11.5687 2.83398 10.2338 3.43972 9.12718C4.04545 8.02056 5.15209 7.33375 7.36535 5.96014L9.69869 4.512C12.0383 3.05999 13.2081 2.33398 14.5007 2.33398C15.7932 2.33398 16.963 3.05999 19.3026 4.512L21.636 5.96012C23.8493 7.33375 24.9559 8.02056 25.5616 9.12718C26.1673 10.2338 26.1673 11.5687 26.1673 14.2385V16.0132C26.1673 20.5641 26.1673 22.8397 24.8004 24.2534C23.4337 25.6673 21.2337 25.6673 16.834 25.6673H12.1673C7.76754 25.6673 5.56766 25.6673 4.20082 24.2534C2.83398 22.8397 2.83398 20.5641 2.83398 16.0132V14.2385Z" stroke="#322938" stroke-width="1.5"/>
<path d="M18 21H11" stroke="#322938" stroke-width="1.5" stroke-linecap="round"/>
</svg>
